<svg width="64" height="64" version="1.1" xmlns="http://www.w3.org/2000/svg" xmlns:xlink="http://www.w3.org/1999/xlink" viewBox="0 0 64 64" xml:space="preserve">
  <!-- Define styles -->
  <style type="text/css">
    .st0 {fill: #306998;}
    .st1 {fill: #FFD43B;}
  </style>

  <!-- Icon: Custom shape similar to PSF logo with pathogens -->
  <g>
    <path class="st0" d="M32,8 C24,8 21,11 21,19 L21,29 L32,29 L32,25 L27,25 L27,19 L41,19 L41,29 C41,37 35,40 27,40 C24,40 21,37 21,37 L21,47 C21,55 24,58 32,58 L48,58 C56,58 59,55 59,47 L59,19 C59,11 56,8 48,8 L32,8 Z"/>
    <circle class="st1" cx="27" cy="13" r="3"/>
  </g>
  <g>
    <path class="st0" d="M32,8 C40,8 43,11 43,19 L43,29 L32,29 L32,25 L37,25 L37,19 L23,19 L23,29 C23,37 29,40 37,40 C40,40 43,37 43,37 L43,47 C43,55 40,58 32,58 L16,58 C8,58 5,55 5,47 L5,19 C5,11 8,8 16,8 L32,8 Z"/>
    <circle class="st1" cx="37" cy="13" r="3"/>
  </g>
</svg>
