<!-- static/img/vaccine_simulation.svg -->
<svg width="64" height="64" viewBox="0 0 24 24" fill="none" xmlns="http://www.w3.org/2000/svg">
  <path d="M20.29 4.71l-1.58-1.58a1.003 1.003 0 00-1.42 0L15.71 5.71a.996.996 0 000 1.41l1.58 1.58-2.11 2.11a4.978 4.978 0 00-5.64 1.35L7.4 9.4a1.992 1.992 0 00-.4-2.12L3.51 4.21c-.4-.4-1.05-.4-1.45 0L.29 5.97c-.4.4-.4 1.05 0 1.45l3.48 3.48a1.99 1.99 0 002.12.4l2.45 2.45a4.978 4.978 0 001.35 5.64l2.11 2.11 1.58 1.58a.996.996 0 001.41 0l3.58-3.58a.996.996 0 000-1.41l-1.58-1.58 2.11-2.11a4.978 4.978 0 001.35-5.64l2.45-2.45a1.99 1.99 0 00-.4-2.12l-3.48-3.48a.993.993 0 00-1.45 0zM7 14.5l-2.12-2.12a4.978 4.978 0 011.35-5.64l2.45 2.45a4.978 4.978 0 015.64-1.35L14.5 7l-2.12-2.12a1.992 1.992 0 00-2.12-.4L8.21 2.51c-.4-.4-1.05-.4-1.45 0L5.97.29c-.4.4-.4 1.05 0 1.45l2.45 2.45a1.992 1.992 0 00.4 2.12L9.4 7.4a4.978 4.978 0 00-5.64-1.35L2.29 4.71c-.4-.4-1.05-.4-1.45 0L.29 5.97c-.4.4-.4 1.05 0 1.45l3.48 3.48c.4.4 1.05.4 1.45 0L6.71 7c-.4.4-.4 1.05 0 1.45l2.45 2.45c.4.4 1.05.4 1.45 0L7 14.5z" fill="#FFD43B"/>
</svg>
